 http://img143.imageshack.us/img143/2600/dddvde1308505588551.jpg

Country.......: USA
Genre.........: Horror, Thriller, Comedy
Date release..: 29.04.2011 [World]
Director......: Kevin Munroe
Writers.......: Thomas Dean Donnelly, Joshua Oppenheimer
Duration......: 108 min.
More..........: http://www.imdb.com/title/tt1013860
Trailer.......: http://www.imdb.com/video/imdb/vi4273511705
Trailer.......:

Pilot :
The adventures of supernatural private eye, Dylan Dog, who seeks out the monsters of the Louisiana bayou in his signature red shirt, black jacket, and blue jeans.

Cats :
Brandon Routh   ...   Dylan Dog
Sam Huntington ... Marcus
Peter Stormare ... Gabriel
Taye Diggs ... Vargas
Anita Briem ... Elizabeth
Andrew Sensenig ... Rosenberg
Brian Steele ... Tatooed Zombie
Kurt Angle ... Wolfgang
Randal Reeder ... Bob the Mechanic
Kimberly Whalen ... Kelly
James Hebert ... Lorca
Courtney J. Clark ... Ally
Kent Jude Bernard ... Slake
Ada Michelle Loridans ... Zombie Mall Rat
Marco St. John ... Borelli

Data Technical :
!!! SAMPLE !!!
Audio.....: English
Subtitles.: Polish .srt
Format                           : Matroska
File size                        : 9.50 GiB
Duration                         : 1h 47mn
Overall bit rate                 : 12.6 Mbps
Encoded date                     : UTC 2011-06-09 07:56:08
Writing application              : mkvmerge v3.2.0 ('Beginnings') Feb 12 2010 16:46:17
Writing library                  : libebml v0.7.9 + libmatroska v0.8.1
Video
ID                               : 1
Format                           : AVC
Format/Info                      : Advanced Video Codec
Format profile                   : High@L4.1
Format settings, CABAC           : Yes
Format settings, ReFrames        : 5 frames
Muxing mode                      : Container profile=Unknown@4.1
Codec ID                         : V_MPEG4/ISO/AVC
Duration                         : 1h 47mn
Bit rate                         : 11.1 Mbps
Width                            : 1 920 pixels
Height                           : 816 pixels
Display aspect ratio             : 2.35:1
Frame rate                       : 23.976 fps
Color space                      : YUV
Chroma subsampling               : 4:2:0
Bit depth                        : 8 bits
Scan type                        : Progressive
Bits/(Pixel*Frame)               : 0.296
Stream size                      : 8.17 GiB (86%)
Title                            : Dylan.Dog.2011
Writing library                  : x264 core 114 r1924 08d04a4
Audio
ID                               : 2
Format                           : DTS
Format/Info                      : Digital Theater Systems
Codec ID                         : A_DTS
Duration                         : 1h 47mn
Bit rate mode                    : Constant
Bit rate                         : 1 510 Kbps
Channel(s)                       : 6 channels
Channel positions                : Front: L C R, Side: L R, LFE
Sampling rate                    : 48.0 KHz
Bit depth                        : 24 bits
Stream size                      : 1.14 GiB (12%)
Title                            : DTS-CORE 1536K

Screen : 
http://img163.imageshack.us/img163/5349/dylandogdeadofnight2010.png 
http://img6.imageshack.us/img6/5349/dylandogdeadofnight2010.png 
http://img94.imageshack.us/img94/5349/dylandogdeadofnight2010.png 
http://img695.imageshack.us/img695/5349/dylandogdeadofnight2010.png 
http://img837.imageshack.us/img837/5349/dylandogdeadofnight2010.png